<svg xmlns="http://www.w3.org/2000/svg" width="64" height="64" viewBox="0 0 24 24">
<polygon points="12.00,1.70 13.19,7.56 17.15,3.08 15.25,8.75 20.92,6.85 16.44,10.81 22.30,12.00 16.44,13.19 20.92,17.15 15.25,15.25 17.15,20.92 13.19,16.44 12.00,22.30 10.81,16.44 6.85,20.92 8.75,15.25 3.08,17.15 7.56,13.19 1.70,12.00 7.56,10.81 3.08,6.85 8.75,8.75 6.85,3.08 10.81,7.56" fill="#e0766f" stroke="#0b0f14" stroke-width="1.1" stroke-linejoin="round" paint-order="stroke"/>
<polygon points="12.91,7.70 13.36,10.02 15.69,9.60 14.36,11.56 16.30,12.91 13.98,13.36 14.40,15.69 12.44,14.36 11.09,16.30 10.64,13.98 8.31,14.40 9.64,12.44 7.70,11.09 10.02,10.64 9.60,8.31 11.56,9.64" fill="#f2f4f6"/>
</svg>
