<svg xmlns="http://www.w3.org/2000/svg" width="36" height="36" viewBox="0 0 24 24" fill="none" stroke="currentColor" stroke-width="1.5" stroke-linecap="round" stroke-linejoin="round"><defs><filter id="openspyIconOutline" x="-40%" y="-40%" width="180%" height="180%"><feMorphology in="SourceAlpha" result="dilated" operator="dilate" radius="0.75"/><feFlood flood-color="#000000" flood-opacity="0.5" result="outlineColor"/><feComposite in="outlineColor" in2="dilated" operator="in" result="outline"/><feMerge><feMergeNode in="outline"/><feMergeNode in="SourceGraphic"/></feMerge></filter></defs><g filter="url(#openspyIconOutline)"><path d="M12 21c4 0 7-3 7-7 0-3-2-5-4-7 .2 3-2 4-2 4S11 8 9 5c0 4-4 5-4 9 0 4 3 7 7 7z" fill="#fb923c" stroke="#0f172a"/><path d="M12 19c2 0 3-2 3-4l-3 2-2-4c-1 2-2 3-2 5 0 1 2 1 4 1z" fill="#f59e0b"/></g></svg>
