<svg xmlns="http://www.w3.org/2000/svg" width="64" height="64" viewBox="0 0 24 24">
<rect x="2.6" y="2.6" width="18.8" height="18.8" rx="4.2" fill="#39414d" stroke="#0b0f14" stroke-width="1.3" stroke-linejoin="round" paint-order="stroke"/>
<g transform="translate(12 12.2) scale(0.72) translate(-12 -12)"><path d="M12 1.6 C12.55 1.6 12.95 2.3 13 3.2 L13.1 8.6 L21.4 13.4 C21.7 13.6 21.9 13.9 21.9 14.3 L21.9 15.5 L13.2 12.9 L13 17.8 L15.7 19.9 C15.9 20.05 16 20.3 16 20.5 L16 21.4 L12 20.3 L8 21.4 L8 20.5 C8 20.3 8.1 20.05 8.3 19.9 L11 17.8 L10.8 12.9 L2.1 15.5 L2.1 14.3 C2.1 13.9 2.3 13.6 2.6 13.4 L10.9 8.6 L11 3.2 C11.05 2.3 11.45 1.6 12 1.6 Z" fill="#f2f4f6"/></g>
</svg>
