<svg xmlns="http://www.w3.org/2000/svg" width="64" height="64" viewBox="0 0 24 24">
<path d="M12 1.8 C12.9 2.6 14.7 4.1 14.7 6.2 L14.7 17.5 C14.7 19.8 13.5 21.6 12 22.2 C10.5 21.6 9.3 19.8 9.3 17.5 L9.3 6.2 C9.3 4.1 11.1 2.6 12 1.8 Z" fill="#252c35" stroke="#0b0f14" stroke-width="2.9" stroke-linejoin="round" paint-order="stroke"/>
<path d="M12 1.8 C12.9 2.6 14.7 4.1 14.7 6.2 L14.7 17.5 C14.7 19.8 13.5 21.6 12 22.2 C10.5 21.6 9.3 19.8 9.3 17.5 L9.3 6.2 C9.3 4.1 11.1 2.6 12 1.8 Z" fill="none" stroke="#e0766f" stroke-width="1.4" stroke-linejoin="round" stroke-dasharray="2.3 1.7"/>
<circle cx="12" cy="11.6" r="1.6" fill="#e0766f"/>
</svg>
