<svg xmlns="http://www.w3.org/2000/svg" width="64" height="64" viewBox="0 0 24 24">
<path d="M12 6.1 L6.6 16.9 M12 6.1 L17.4 16.9 M6.6 16.9 L17.4 16.9" fill="none" stroke="#0b0f14" stroke-width="2.4" stroke-linecap="round" stroke-linejoin="round"/>
<path d="M12 6.1 L6.6 16.9 M12 6.1 L17.4 16.9 M6.6 16.9 L17.4 16.9" fill="none" stroke="#8fd0e8" stroke-width="0.9" stroke-linecap="round" stroke-linejoin="round"/>
<g transform="translate(12 5.4) scale(0.42) translate(-12 -12)"><rect x="2.4" y="10.3" width="5.8" height="3.4" rx="0.7" fill="#f2f4f6" stroke="#0b0f14" stroke-width="2.2" paint-order="stroke"/><rect x="15.8" y="10.3" width="5.8" height="3.4" rx="0.7" fill="#f2f4f6" stroke="#0b0f14" stroke-width="2.2" paint-order="stroke"/><rect x="9.2" y="8.7" width="5.6" height="6.6" rx="1.2" fill="#f2f4f6" stroke="#0b0f14" stroke-width="2.6" paint-order="stroke"/></g>
<g transform="translate(6.2 17.2) scale(0.42) translate(-12 -12)"><rect x="2.4" y="10.3" width="5.8" height="3.4" rx="0.7" fill="#f2f4f6" stroke="#0b0f14" stroke-width="2.2" paint-order="stroke"/><rect x="15.8" y="10.3" width="5.8" height="3.4" rx="0.7" fill="#f2f4f6" stroke="#0b0f14" stroke-width="2.2" paint-order="stroke"/><rect x="9.2" y="8.7" width="5.6" height="6.6" rx="1.2" fill="#f2f4f6" stroke="#0b0f14" stroke-width="2.6" paint-order="stroke"/></g>
<g transform="translate(17.8 17.2) scale(0.42) translate(-12 -12)"><rect x="2.4" y="10.3" width="5.8" height="3.4" rx="0.7" fill="#f2f4f6" stroke="#0b0f14" stroke-width="2.2" paint-order="stroke"/><rect x="15.8" y="10.3" width="5.8" height="3.4" rx="0.7" fill="#f2f4f6" stroke="#0b0f14" stroke-width="2.2" paint-order="stroke"/><rect x="9.2" y="8.7" width="5.6" height="6.6" rx="1.2" fill="#f2f4f6" stroke="#0b0f14" stroke-width="2.6" paint-order="stroke"/></g>
</svg>
