<svg xmlns="http://www.w3.org/2000/svg" width="64" height="64" viewBox="0 0 24 24">
<path d="M4.6 10.4 A10.6 10.6 0 0 1 19.4 10.4" fill="none" stroke="#0b0f14" stroke-width="3.3" stroke-linecap="round" stroke-linejoin="round"/>
<path d="M4.6 10.4 A10.6 10.6 0 0 1 19.4 10.4" fill="none" stroke="#c3cad2" stroke-width="1.8" stroke-linecap="round" stroke-linejoin="round"/>
<path d="M7.5 13.6 A6.6 6.6 0 0 1 16.5 13.6" fill="none" stroke="#0b0f14" stroke-width="3.3" stroke-linecap="round" stroke-linejoin="round"/>
<path d="M7.5 13.6 A6.6 6.6 0 0 1 16.5 13.6" fill="none" stroke="#c3cad2" stroke-width="1.8" stroke-linecap="round" stroke-linejoin="round"/>
<path d="M10.5 15.6 C10.5 14.4 11.1 13.9 12 13.9 C12.9 13.9 13.5 14.5 13.5 15.4 C13.5 16.6 12 16.7 12 18" fill="none" stroke="#0b0f14" stroke-width="3.0" stroke-linecap="round" stroke-linejoin="round"/>
<path d="M10.5 15.6 C10.5 14.4 11.1 13.9 12 13.9 C12.9 13.9 13.5 14.5 13.5 15.4 C13.5 16.6 12 16.7 12 18" fill="none" stroke="#c3cad2" stroke-width="1.5" stroke-linecap="round" stroke-linejoin="round"/>
<circle cx="12" cy="20.2" r="1.1" fill="#c3cad2" stroke="#0b0f14" stroke-width="1.1" stroke-linejoin="round" paint-order="stroke"/>
</svg>
