<svg xmlns="http://www.w3.org/2000/svg" width="64" height="64" viewBox="0 0 24 24">
<path d="M4.6 10.4 A10.6 10.6 0 0 1 19.4 10.4" fill="none" stroke="#0b0f14" stroke-width="3.3" stroke-linecap="round" stroke-linejoin="round"/>
<path d="M4.6 10.4 A10.6 10.6 0 0 1 19.4 10.4" fill="none" stroke="#f2f4f6" stroke-width="1.8" stroke-linecap="round" stroke-linejoin="round"/>
<path d="M7.5 13.6 A6.6 6.6 0 0 1 16.5 13.6" fill="none" stroke="#0b0f14" stroke-width="3.3" stroke-linecap="round" stroke-linejoin="round"/>
<path d="M7.5 13.6 A6.6 6.6 0 0 1 16.5 13.6" fill="none" stroke="#f2f4f6" stroke-width="1.8" stroke-linecap="round" stroke-linejoin="round"/>
<rect x="9.4" y="15.2" width="5.2" height="4.4" rx="1" fill="#e0b765" stroke="#0b0f14" stroke-width="1.1" stroke-linejoin="round" paint-order="stroke"/>
<path d="M10.8 15.2 L10.8 14.2 A1.2 1.2 0 0 1 13.2 14.2 L13.2 15.2" fill="none" stroke="#0b0f14" stroke-width="2.7" stroke-linecap="round" stroke-linejoin="round"/>
<path d="M10.8 15.2 L10.8 14.2 A1.2 1.2 0 0 1 13.2 14.2 L13.2 15.2" fill="none" stroke="#f2f4f6" stroke-width="1.2" stroke-linecap="round" stroke-linejoin="round"/>
</svg>
