<svg xmlns="http://www.w3.org/2000/svg" width="32" height="32" viewBox="0 0 48 48"><path d="M24 2 C24 2 21 4 20 7 L18 12 L16 36 C16 40 19 44 24 44 C29 44 32 40 32 36 L30 12 L28 7 C27 4 24 2 24 2 Z" fill="#475569" stroke="#334155" stroke-width="1"/><path d="M20 10 L18 36 C18 39 20 42 24 42 C28 42 30 39 30 36 L28 10 Z" fill="#64748b" stroke="#475569" stroke-width="0.5"/><circle cx="24" cy="11" r="2.5" fill="#334155" stroke="#1e293b" stroke-width="0.6"/><line x1="24" y1="11" x2="24" y2="5" stroke="#334155" stroke-width="1.5" stroke-linecap="round"/><rect x="20" y="17" width="8" height="8" rx="1" fill="#334155" stroke="#1e293b" stroke-width="0.6"/><rect x="21" y="18" width="1.2" height="0.8" rx="0.2" fill="#67e8f9" opacity="0.6"/><rect x="23.4" y="18" width="1.2" height="0.8" rx="0.2" fill="#67e8f9" opacity="0.6"/><rect x="25.8" y="18" width="1.2" height="0.8" rx="0.2" fill="#67e8f9" opacity="0.6"/><line x1="24" y1="17" x2="24" y2="14" stroke="#94a3b8" stroke-width="0.8"/><line x1="21" y1="14.5" x2="27" y2="14.5" stroke="#94a3b8" stroke-width="0.6"/><rect x="22" y="14" width="4" height="1" rx="0.3" fill="#94a3b8" stroke="#64748b" stroke-width="0.3"/><rect x="21" y="26" width="2.5" height="2.5" rx="0.3" fill="#1e293b" stroke="#475569" stroke-width="0.4"/><rect x="24.5" y="26" width="2.5" height="2.5" rx="0.3" fill="#1e293b" stroke="#475569" stroke-width="0.4"/><rect x="21" y="29.5" width="2.5" height="2.5" rx="0.3" fill="#1e293b" stroke="#475569" stroke-width="0.4"/><rect x="24.5" y="29.5" width="2.5" height="2.5" rx="0.3" fill="#1e293b" stroke="#475569" stroke-width="0.4"/><circle cx="24" cy="35" r="1.8" fill="#334155" stroke="#1e293b" stroke-width="0.5"/><line x1="24" y1="35" x2="24" y2="38" stroke="#334155" stroke-width="1" stroke-linecap="round"/><rect x="20" y="37" width="8" height="4" rx="0.5" fill="#475569" stroke="#334155" stroke-width="0.4"/><circle cx="24" cy="39" r="1.5" fill="none" stroke="#94a3b8" stroke-width="0.4"/><rect x="22" y="22" width="1.5" height="2" rx="0.3" fill="#1e293b"/><rect x="24.5" y="22" width="1.5" height="2" rx="0.3" fill="#1e293b"/></svg>
