<svg xmlns="http://www.w3.org/2000/svg" width="32" height="32" viewBox="0 0 48 48"><path d="M24 3 C24 3 18 6 16 10 L14 38 C14 42 18 45 24 45 C30 45 34 42 34 38 L32 10 C30 6 24 3 24 3 Z" fill="#dc2626" stroke="#991b1b" stroke-width="1"/><rect x="17" y="14" width="14" height="22" rx="2" fill="#ef4444" stroke="#991b1b" stroke-width="0.7"/><rect x="19" y="30" width="10" height="6" rx="1" fill="#1e293b" stroke="#0f172a" stroke-width="0.7"/><rect x="20" y="31" width="2" height="1.5" rx="0.3" fill="#67e8f9" opacity="0.8"/><rect x="23" y="31" width="2" height="1.5" rx="0.3" fill="#67e8f9" opacity="0.8"/><rect x="26" y="31" width="2" height="1.5" rx="0.3" fill="#67e8f9" opacity="0.8"/><circle cx="21" cy="17" r="2.2" fill="#b91c1c" stroke="#991b1b" stroke-width="0.5"/><circle cx="27" cy="17" r="2.2" fill="#b91c1c" stroke="#991b1b" stroke-width="0.5"/><circle cx="21" cy="22" r="2.2" fill="#b91c1c" stroke="#991b1b" stroke-width="0.5"/><circle cx="27" cy="22" r="2.2" fill="#b91c1c" stroke="#991b1b" stroke-width="0.5"/><circle cx="21" cy="27" r="2.2" fill="#b91c1c" stroke="#991b1b" stroke-width="0.5"/><circle cx="27" cy="27" r="2.2" fill="#b91c1c" stroke="#991b1b" stroke-width="0.5"/><line x1="24" y1="14" x2="24" y2="30" stroke="#991b1b" stroke-width="1" stroke-dasharray="2 1"/><line x1="22" y1="8" x2="26" y2="8" stroke="#fca5a5" stroke-width="1" stroke-linecap="round"/><line x1="21" y1="10" x2="27" y2="10" stroke="#fca5a5" stroke-width="0.7" stroke-linecap="round"/><line x1="24" y1="30" x2="24" y2="27" stroke="#475569" stroke-width="0.8"/><circle cx="24" cy="26.5" r="0.6" fill="#67e8f9"/><path d="M20 43 Q24 46 28 43" fill="none" stroke="white" stroke-width="0.5" opacity="0.3"/></svg>
