<svg xmlns="http://www.w3.org/2000/svg" width="32" height="32" viewBox="0 0 48 48"><path d="M24 5 C24 5 20 7 18 11 L16 37 C16 41 19 44 24 44 C29 44 32 41 32 37 L30 11 C28 7 24 5 24 5 Z" fill="#9ca3af" stroke="#6b7280" stroke-width="1"/><rect x="19" y="13" width="10" height="22" rx="1.5" fill="#d1d5db" stroke="#9ca3af" stroke-width="0.5"/><rect x="21" y="30" width="6" height="4" rx="1" fill="#4b5563" stroke="#374151" stroke-width="0.6"/><rect x="22" y="31" width="1.2" height="1" rx="0.2" fill="#67e8f9" opacity="0.5"/><rect x="24.4" y="31" width="1.2" height="1" rx="0.2" fill="#67e8f9" opacity="0.5"/><rect x="20" y="15" width="8" height="5" rx="0.5" fill="#b5b5b5" stroke="#9ca3af" stroke-width="0.4"/><rect x="20" y="22" width="8" height="5" rx="0.5" fill="#b5b5b5" stroke="#9ca3af" stroke-width="0.4"/><line x1="24" y1="30" x2="24" y2="27" stroke="#6b7280" stroke-width="0.8"/><text x="24" y="20" text-anchor="middle" font-size="5" fill="#4b5563" font-family="sans-serif" font-weight="bold">?</text></svg>
