<svg xmlns="http://www.w3.org/2000/svg" width="32" height="32" viewBox="0 0 24 24"><polygon points="10,6 14,6 15,8 15,16 14,18 10,18 9,16 9,8" fill="#ef4444" stroke="#000000" stroke-width="1.2"/><line x1="9" y1="10" x2="15" y2="10" stroke="#000000" stroke-width="0.5" opacity="0.6"/><line x1="9" y1="14" x2="15" y2="14" stroke="#000000" stroke-width="0.5" opacity="0.6"/><rect x="1" y="9" width="7" height="6" rx="0.5" fill="#ef4444" stroke="#000000" stroke-width="1"/><line x1="3.3" y1="9" x2="3.3" y2="15" stroke="#000000" stroke-width="0.3" opacity="0.5"/><line x1="5.6" y1="9" x2="5.6" y2="15" stroke="#000000" stroke-width="0.3" opacity="0.5"/><line x1="1" y1="12" x2="8" y2="12" stroke="#000000" stroke-width="0.3" opacity="0.5"/><rect x="16" y="9" width="7" height="6" rx="0.5" fill="#ef4444" stroke="#000000" stroke-width="1"/><line x1="18.3" y1="9" x2="18.3" y2="15" stroke="#000000" stroke-width="0.3" opacity="0.5"/><line x1="20.6" y1="9" x2="20.6" y2="15" stroke="#000000" stroke-width="0.3" opacity="0.5"/><line x1="16" y1="12" x2="23" y2="12" stroke="#000000" stroke-width="0.3" opacity="0.5"/><circle cx="12" cy="12" r="2" fill="#000000" stroke="#000000" stroke-width="0.6" opacity="0.7"/><circle cx="12" cy="12" r="1" fill="#ffffff" opacity="0.9"/><rect x="10.5" y="3.5" width="3" height="2" rx="0.5" fill="#ef4444" stroke="#000000" stroke-width="0.8"/><line x1="12" y1="6" x2="12" y2="5.5" stroke="#000000" stroke-width="0.6"/><polygon points="11,18 13,18 13.5,20 10.5,20" fill="#ef4444" stroke="#000000" stroke-width="0.6" opacity="0.8"/></svg>
