<svg xmlns="http://www.w3.org/2000/svg" width="32" height="32" viewBox="0 0 48 48"><rect x="6" y="16" width="28" height="20" rx="3" fill="#0e7490" stroke="#155e75" stroke-width="1"/><line x1="6" y1="22" x2="34" y2="22" stroke="#155e75" stroke-width="0.4"/><rect x="8" y="24" width="10" height="3" rx="0.5" fill="#164e63" stroke="#0e7490" stroke-width="0.3"/><circle cx="30" cy="19" r="1.5" fill="#ef4444" stroke="#991b1b" stroke-width="0.4"/><circle cx="38" cy="26" r="8" fill="#164e63" stroke="#22d3ee" stroke-width="1"/><circle cx="38" cy="26" r="6" fill="#0c4a6e" stroke="#06b6d4" stroke-width="0.6"/><circle cx="38" cy="26" r="3.5" fill="#155e75" stroke="#22d3ee" stroke-width="0.5"/><circle cx="38" cy="26" r="1.5" fill="#22d3ee" opacity="0.6"/><circle cx="36" cy="24" r="1" fill="white" opacity="0.2"/><circle cx="38" cy="26" r="7" fill="none" stroke="#67e8f9" stroke-width="0.3" opacity="0.4"/><rect x="10" y="10" width="12" height="6" rx="2" fill="#155e75" stroke="#0e7490" stroke-width="0.8"/><rect x="12" y="11" width="4" height="4" rx="1" fill="#0c4a6e" stroke="#22d3ee" stroke-width="0.4"/><rect x="13" y="12" width="2" height="2" rx="0.5" fill="#67e8f9" opacity="0.4"/><rect x="24" y="8" width="4" height="8" rx="1.5" fill="#164e63" stroke="#0e7490" stroke-width="0.6"/><rect x="17" y="36" width="6" height="3" rx="0.5" fill="#164e63" stroke="#155e75" stroke-width="0.5"/><line x1="20" y1="39" x2="20" y2="42" stroke="#155e75" stroke-width="1"/><circle cx="9" cy="19" r="0.8" fill="#22d3ee" opacity="0.8"/></svg>
