<svg xmlns="http://www.w3.org/2000/svg" width="32" height="32" viewBox="0 0 48 48">
  <!-- Explosion burst: star-like jagged shape radiating from center -->
  <!-- Outer glow -->
  <circle cx="24" cy="24" r="20" fill="#ef4444" opacity="0.12"/>

  <!-- Explosion burst shape (jagged star) -->
  <polygon points="24,2 27,14 34,6 30,16 42,12 33,20 46,24 33,28 42,36 30,32 34,42 27,34 24,46 21,34 14,42 18,32 6,36 15,28 2,24 15,20 6,12 18,16 14,6 21,14" fill="#ef4444" stroke="#991b1b" stroke-width="0.8"/>

  <!-- Inner explosion layers -->
  <polygon points="24,10 27,18 32,13 29,19 38,18 31,22 38,24 31,26 38,30 29,29 32,35 27,30 24,38 21,30 16,35 19,29 10,30 17,26 10,24 17,22 10,18 19,19 16,13 21,18" fill="#f97316" stroke="#ea580c" stroke-width="0.5"/>

  <!-- Core -->
  <circle cx="24" cy="24" r="5" fill="#fbbf24" stroke="#f59e0b" stroke-width="0.5"/>
  <!-- White hot center -->
  <circle cx="24" cy="24" r="2.5" fill="#fef3c7" opacity="0.8"/>
  <circle cx="24" cy="24" r="1" fill="#ffffff"/>
</svg>
