<svg xmlns="http://www.w3.org/2000/svg" width="32" height="32" viewBox="0 0 48 48">
  <!-- Skull and crossbones — classic danger symbol -->
  <!-- Crossed bones behind skull -->
  <!-- Bone 1: top-left to bottom-right -->
  <path d="M8 10 L40 38" stroke="#eab308" stroke-width="4" stroke-linecap="round" fill="none"/>
  <!-- Bone 1 knobs -->
  <circle cx="7" cy="8" r="2.5" fill="#eab308" stroke="#000" stroke-width="0.8"/>
  <circle cx="10" cy="11" r="2.5" fill="#eab308" stroke="#000" stroke-width="0.8"/>
  <circle cx="41" cy="40" r="2.5" fill="#eab308" stroke="#000" stroke-width="0.8"/>
  <circle cx="38" cy="37" r="2.5" fill="#eab308" stroke="#000" stroke-width="0.8"/>
  <!-- Bone 2: top-right to bottom-left -->
  <path d="M40 10 L8 38" stroke="#eab308" stroke-width="4" stroke-linecap="round" fill="none"/>
  <!-- Bone 2 knobs -->
  <circle cx="41" cy="8" r="2.5" fill="#eab308" stroke="#000" stroke-width="0.8"/>
  <circle cx="38" cy="11" r="2.5" fill="#eab308" stroke="#000" stroke-width="0.8"/>
  <circle cx="7" cy="40" r="2.5" fill="#eab308" stroke="#000" stroke-width="0.8"/>
  <circle cx="10" cy="37" r="2.5" fill="#eab308" stroke="#000" stroke-width="0.8"/>
  <!-- Skull -->
  <!-- Cranium -->
  <ellipse cx="24" cy="18" rx="12" ry="11" fill="#eab308" stroke="#000" stroke-width="1"/>
  <!-- Jaw / lower face -->
  <path d="M14 22 L14 28 Q16 32 20 30 L22 32 L24 30 L26 32 L28 30 Q32 32 34 28 L34 22"
        fill="#eab308" stroke="#000" stroke-width="1"/>
  <!-- Left eye socket -->
  <ellipse cx="19" cy="17" rx="3.5" ry="4" fill="#000"/>
  <!-- Right eye socket -->
  <ellipse cx="29" cy="17" rx="3.5" ry="4" fill="#000"/>
  <!-- Nose hole -->
  <path d="M22 23 L24 21 L26 23" fill="#000" stroke="#000" stroke-width="0.5"/>
  <!-- Teeth line -->
  <line x1="18" y1="28" x2="30" y2="28" stroke="#000" stroke-width="0.6"/>
  <line x1="21" y1="26" x2="21" y2="30" stroke="#000" stroke-width="0.5"/>
  <line x1="24" y1="26" x2="24" y2="32" stroke="#000" stroke-width="0.5"/>
  <line x1="27" y1="26" x2="27" y2="30" stroke="#000" stroke-width="0.5"/>
</svg>
