<svg xmlns="http://www.w3.org/2000/svg" width="32" height="32" viewBox="0 0 48 48">
  <!-- Dark vessel: ominous ship silhouette (top-down, bow up) with red warning badge -->
  <!-- Hull — very dark, angular, menacing -->
  <path d="M24 4 C24 4 20 7 18 10 L16 36 C16 40 19 43 24 43 C29 43 32 40 32 36 L30 10 C28 7 24 4 24 4 Z" fill="#1f2937" stroke="#dc2626" stroke-width="1.2"/>

  <!-- Deck surface -->
  <path d="M20 12 L18 36 C18 39 20 41 24 41 C28 41 30 39 30 36 L28 12 Z" fill="#374151" stroke="#1f2937" stroke-width="0.5"/>

  <!-- Superstructure / bridge (dark, no lights) -->
  <rect x="20" y="18" width="8" height="7" rx="1" fill="#111827" stroke="#1f2937" stroke-width="0.6"/>
  <!-- Dark windows — no illumination, suspicious -->
  <rect x="21" y="19.5" width="1.5" height="0.8" rx="0.2" fill="#374151" opacity="0.5"/>
  <rect x="23.25" y="19.5" width="1.5" height="0.8" rx="0.2" fill="#374151" opacity="0.5"/>
  <rect x="25.5" y="19.5" width="1.5" height="0.8" rx="0.2" fill="#374151" opacity="0.5"/>

  <!-- Mast (no radar — AIS off) -->
  <line x1="24" y1="18" x2="24" y2="15" stroke="#4b5563" stroke-width="0.8"/>

  <!-- Bow marking -->
  <line x1="22" y1="8" x2="26" y2="8" stroke="#6b7280" stroke-width="0.8" stroke-linecap="round"/>

  <!-- Stern area -->
  <rect x="20" y="33" width="8" height="5" rx="0.5" fill="#111827" stroke="#1f2937" stroke-width="0.4"/>

  <!-- Cargo/tank area hints -->
  <circle cx="21.5" cy="28" r="1.8" fill="#111827" stroke="#374151" stroke-width="0.4"/>
  <circle cx="26.5" cy="28" r="1.8" fill="#111827" stroke="#374151" stroke-width="0.4"/>

  <!-- Warning badge — upper right corner -->
  <circle cx="35" cy="10" r="7" fill="#ef4444" stroke="#991b1b" stroke-width="1"/>
  <rect x="33.5" y="5.5" width="3" height="5.5" rx="1.5" fill="#ffffff"/>
  <circle cx="35" cy="13.5" r="1.3" fill="#ffffff"/>
</svg>
