<svg xmlns="http://www.w3.org/2000/svg" width="32" height="32" viewBox="0 0 48 48">
  <!-- Critical outage: lightning bolt in circle. Red scheme -->
  <!-- Outer pulse ring -->
  <circle cx="24" cy="24" r="22" fill="#ef4444" opacity="0.1"/>
  <circle cx="24" cy="24" r="19" fill="#ef4444" opacity="0.15"/>
  <!-- Outer ring strokes -->
  <circle cx="24" cy="24" r="22" fill="none" stroke="#ef4444" stroke-width="0.6" opacity="0.3"/>
  <circle cx="24" cy="24" r="19" fill="none" stroke="#ef4444" stroke-width="0.4" opacity="0.4"/>

  <!-- Main circle -->
  <circle cx="24" cy="24" r="15" fill="#991b1b" stroke="#ef4444" stroke-width="1.2"/>
  <!-- Inner circle highlight -->
  <circle cx="24" cy="24" r="12" fill="#b91c1c" stroke="#dc2626" stroke-width="0.5"/>

  <!-- Lightning bolt -->
  <polygon points="27,8 19,24 23,24 20,40 32,22 27,22 30,10" fill="#fbbf24" stroke="#f59e0b" stroke-width="0.8"/>
  <!-- Lightning bolt highlight -->
  <polygon points="27,11 21,23 24,23 22,36 30,23 27,23 29,13" fill="#fde68a" opacity="0.4"/>

  <!-- Spark dots -->
  <circle cx="17" cy="18" r="0.8" fill="#fbbf24" opacity="0.6"/>
  <circle cx="31" cy="30" r="0.8" fill="#fbbf24" opacity="0.6"/>
  <circle cx="17" cy="30" r="0.6" fill="#fbbf24" opacity="0.4"/>
  <circle cx="31" cy="18" r="0.6" fill="#fbbf24" opacity="0.4"/>
</svg>
