<svg xmlns="http://www.w3.org/2000/svg" width="32" height="32" viewBox="0 0 24 24">
  <!-- Commercial satellite: dish + boxy body + wide panels, cyan fill, black outline -->
  <!-- Body -->
  <rect x="9" y="8" width="6" height="8" rx="1" fill="#06b6d4" stroke="#000000" stroke-width="1.2"/>
  <!-- Body panel lines -->
  <line x1="9" y1="10.5" x2="15" y2="10.5" stroke="#000000" stroke-width="0.4" opacity="0.6"/>
  <line x1="9" y1="13.5" x2="15" y2="13.5" stroke="#000000" stroke-width="0.4" opacity="0.6"/>
  <!-- Left solar panel -->
  <rect x="0.5" y="8.5" width="7.5" height="7" rx="0.5" fill="#06b6d4" stroke="#000000" stroke-width="1"/>
  <line x1="2.5" y1="8.5" x2="2.5" y2="15.5" stroke="#000000" stroke-width="0.3" opacity="0.5"/>
  <line x1="4.5" y1="8.5" x2="4.5" y2="15.5" stroke="#000000" stroke-width="0.3" opacity="0.5"/>
  <line x1="6.5" y1="8.5" x2="6.5" y2="15.5" stroke="#000000" stroke-width="0.3" opacity="0.5"/>
  <line x1="0.5" y1="12" x2="8" y2="12" stroke="#000000" stroke-width="0.3" opacity="0.5"/>
  <!-- Right solar panel -->
  <rect x="16" y="8.5" width="7.5" height="7" rx="0.5" fill="#06b6d4" stroke="#000000" stroke-width="1"/>
  <line x1="18" y1="8.5" x2="18" y2="15.5" stroke="#000000" stroke-width="0.3" opacity="0.5"/>
  <line x1="20" y1="8.5" x2="20" y2="15.5" stroke="#000000" stroke-width="0.3" opacity="0.5"/>
  <line x1="22" y1="8.5" x2="22" y2="15.5" stroke="#000000" stroke-width="0.3" opacity="0.5"/>
  <line x1="16" y1="12" x2="23.5" y2="12" stroke="#000000" stroke-width="0.3" opacity="0.5"/>
  <!-- Comms dish (top) -->
  <line x1="12" y1="8" x2="12" y2="4.5" stroke="#000000" stroke-width="0.8"/>
  <ellipse cx="12" cy="3.5" rx="3" ry="1.2" fill="#06b6d4" stroke="#000000" stroke-width="0.8"/>
  <circle cx="12" cy="3.5" r="0.5" fill="#ffffff" opacity="0.9"/>
  <!-- Feed horn -->
  <line x1="12" y1="3.5" x2="12" y2="1.5" stroke="#000000" stroke-width="0.5" opacity="0.7"/>
  <!-- Side antennas -->
  <line x1="9" y1="9" x2="7" y2="7" stroke="#000000" stroke-width="0.5" opacity="0.6"/>
  <circle cx="6.8" cy="6.8" r="0.3" fill="#000000" opacity="0.6"/>
  <line x1="15" y1="9" x2="17" y2="7" stroke="#000000" stroke-width="0.5" opacity="0.6"/>
  <circle cx="17.2" cy="6.8" r="0.3" fill="#000000" opacity="0.6"/>
  <!-- Thruster (bottom) -->
  <polygon points="11,16 13,16 13.5,18 10.5,18" fill="#06b6d4" stroke="#000000" stroke-width="0.5" opacity="0.7"/>
</svg>
