<svg xmlns="http://www.w3.org/2000/svg" width="32" height="32" viewBox="0 0 24 24">
  <!-- Recon satellite: telescope/eye shape, amber fill, black outline -->
  <!-- Telescope tube body -->
  <rect x="9.5" y="5" width="5" height="13" rx="1.5" fill="#f59e0b" stroke="#000000" stroke-width="1.2"/>
  <!-- Tube ring details -->
  <line x1="9.5" y1="8" x2="14.5" y2="8" stroke="#000000" stroke-width="0.5" opacity="0.6"/>
  <line x1="9.5" y1="11" x2="14.5" y2="11" stroke="#000000" stroke-width="0.5" opacity="0.6"/>
  <line x1="9.5" y1="15" x2="14.5" y2="15" stroke="#000000" stroke-width="0.5" opacity="0.6"/>
  <!-- Optics aperture (top) — eye/lens shape -->
  <circle cx="12" cy="3.5" r="2.5" fill="#f59e0b" stroke="#000000" stroke-width="1"/>
  <circle cx="12" cy="3.5" r="1.2" fill="#000000" stroke="#000000" stroke-width="0.5" opacity="0.7"/>
  <circle cx="12" cy="3.5" r="0.5" fill="#ffffff" opacity="0.9"/>
  <!-- Sun shade baffle ring -->
  <ellipse cx="12" cy="2" rx="3.2" ry="0.8" fill="#f59e0b" stroke="#000000" stroke-width="0.6" opacity="0.7"/>
  <!-- Left solar panel -->
  <rect x="1.5" y="9.5" width="7" height="5" rx="0.5" fill="#f59e0b" stroke="#000000" stroke-width="1"/>
  <line x1="4" y1="9.5" x2="4" y2="14.5" stroke="#000000" stroke-width="0.3" opacity="0.5"/>
  <line x1="6.5" y1="9.5" x2="6.5" y2="14.5" stroke="#000000" stroke-width="0.3" opacity="0.5"/>
  <line x1="1.5" y1="12" x2="8.5" y2="12" stroke="#000000" stroke-width="0.3" opacity="0.5"/>
  <!-- Right solar panel -->
  <rect x="15.5" y="9.5" width="7" height="5" rx="0.5" fill="#f59e0b" stroke="#000000" stroke-width="1"/>
  <line x1="18" y1="9.5" x2="18" y2="14.5" stroke="#000000" stroke-width="0.3" opacity="0.5"/>
  <line x1="20.5" y1="9.5" x2="20.5" y2="14.5" stroke="#000000" stroke-width="0.3" opacity="0.5"/>
  <line x1="15.5" y1="12" x2="22.5" y2="12" stroke="#000000" stroke-width="0.3" opacity="0.5"/>
  <!-- Downlink antenna (bottom) -->
  <line x1="12" y1="18" x2="12" y2="21" stroke="#000000" stroke-width="0.8" opacity="0.7"/>
  <path d="M10 21 Q12 23 14 21" fill="none" stroke="#000000" stroke-width="0.6" opacity="0.6"/>
</svg>
