<svg xmlns="http://www.w3.org/2000/svg" width="32" height="32" viewBox="0 0 24 24">
  <!-- Civilian satellite: ISS-like truss, lime fill, black outline -->
  <!-- Central truss -->
  <rect x="11" y="5" width="2" height="14" rx="0.5" fill="#84cc16" stroke="#000000" stroke-width="1.2"/>
  <!-- Truss cross-braces -->
  <line x1="11" y1="8" x2="13" y2="10" stroke="#000000" stroke-width="0.4" opacity="0.6"/>
  <line x1="13" y1="8" x2="11" y2="10" stroke="#000000" stroke-width="0.4" opacity="0.6"/>
  <line x1="11" y1="13" x2="13" y2="15" stroke="#000000" stroke-width="0.4" opacity="0.6"/>
  <line x1="13" y1="13" x2="11" y2="15" stroke="#000000" stroke-width="0.4" opacity="0.6"/>
  <!-- Left upper solar array -->
  <rect x="1" y="7" width="9" height="3" rx="0.5" fill="#84cc16" stroke="#000000" stroke-width="1"/>
  <line x1="3.25" y1="7" x2="3.25" y2="10" stroke="#000000" stroke-width="0.3" opacity="0.5"/>
  <line x1="5.5" y1="7" x2="5.5" y2="10" stroke="#000000" stroke-width="0.3" opacity="0.5"/>
  <line x1="7.75" y1="7" x2="7.75" y2="10" stroke="#000000" stroke-width="0.3" opacity="0.5"/>
  <!-- Left lower solar array -->
  <rect x="1" y="14" width="9" height="3" rx="0.5" fill="#84cc16" stroke="#000000" stroke-width="1"/>
  <line x1="3.25" y1="14" x2="3.25" y2="17" stroke="#000000" stroke-width="0.3" opacity="0.5"/>
  <line x1="5.5" y1="14" x2="5.5" y2="17" stroke="#000000" stroke-width="0.3" opacity="0.5"/>
  <line x1="7.75" y1="14" x2="7.75" y2="17" stroke="#000000" stroke-width="0.3" opacity="0.5"/>
  <!-- Right upper solar array -->
  <rect x="14" y="7" width="9" height="3" rx="0.5" fill="#84cc16" stroke="#000000" stroke-width="1"/>
  <line x1="16.25" y1="7" x2="16.25" y2="10" stroke="#000000" stroke-width="0.3" opacity="0.5"/>
  <line x1="18.5" y1="7" x2="18.5" y2="10" stroke="#000000" stroke-width="0.3" opacity="0.5"/>
  <line x1="20.75" y1="7" x2="20.75" y2="10" stroke="#000000" stroke-width="0.3" opacity="0.5"/>
  <!-- Right lower solar array -->
  <rect x="14" y="14" width="9" height="3" rx="0.5" fill="#84cc16" stroke="#000000" stroke-width="1"/>
  <line x1="16.25" y1="14" x2="16.25" y2="17" stroke="#000000" stroke-width="0.3" opacity="0.5"/>
  <line x1="18.5" y1="14" x2="18.5" y2="17" stroke="#000000" stroke-width="0.3" opacity="0.5"/>
  <line x1="20.75" y1="14" x2="20.75" y2="17" stroke="#000000" stroke-width="0.3" opacity="0.5"/>
  <!-- Instrument module (top) -->
  <rect x="10" y="3" width="4" height="2" rx="0.5" fill="#84cc16" stroke="#000000" stroke-width="0.8"/>
  <circle cx="11" cy="4" r="0.4" fill="#000000" opacity="0.9"/>
  <circle cx="13" cy="4" r="0.4" fill="#000000" opacity="0.9"/>
  <!-- Antenna (bottom) -->
  <line x1="12" y1="19" x2="12" y2="22" stroke="#000000" stroke-width="0.6" opacity="0.7"/>
  <circle cx="12" cy="22.5" r="0.8" fill="#84cc16" stroke="#000000" stroke-width="0.5" opacity="0.7"/>
  <circle cx="12" cy="22.5" r="0.3" fill="#000000" opacity="0.7"/>
</svg>
