<svg xmlns="http://www.w3.org/2000/svg" width="32" height="32" viewBox="0 0 48 48">
  <!-- Passenger/cruise ship, top-down, bow up. White hull for ocean contrast -->
  <!-- Hull (wide, cruise-ship proportions) -->
  <path d="M24 3 C24 3 18 6 16 10 L14 38 C14 42 18 45 24 45 C30 45 34 42 34 38 L32 10 C30 6 24 3 24 3 Z" fill="#f8fafc" stroke="#2563eb" stroke-width="1.2"/>

  <!-- Keel / waterline accent -->
  <path d="M24 43 C19 43 16 41 15 38 L17 38 C18 40 20 41 24 41 C28 41 30 40 31 38 L33 38 C32 41 29 43 24 43 Z" fill="#2563eb" opacity="0.6"/>

  <!-- Upper deck -->
  <rect x="17" y="10" width="14" height="28" rx="3" fill="#e2e8f0" stroke="#94a3b8" stroke-width="0.5"/>

  <!-- Window rows (port side) — bright yellow lit windows -->
  <rect x="17.5" y="13" width="1.2" height="1" rx="0.2" fill="#fef08a"/>
  <rect x="17.5" y="15.5" width="1.2" height="1" rx="0.2" fill="#fef08a"/>
  <rect x="17.5" y="18" width="1.2" height="1" rx="0.2" fill="#fef08a"/>
  <rect x="17.5" y="20.5" width="1.2" height="1" rx="0.2" fill="#fef08a"/>
  <rect x="17.5" y="23" width="1.2" height="1" rx="0.2" fill="#fef08a"/>
  <rect x="17.5" y="25.5" width="1.2" height="1" rx="0.2" fill="#fef08a"/>
  <rect x="17.5" y="28" width="1.2" height="1" rx="0.2" fill="#fef08a"/>
  <!-- Window rows (starboard side) -->
  <rect x="29.3" y="13" width="1.2" height="1" rx="0.2" fill="#fef08a"/>
  <rect x="29.3" y="15.5" width="1.2" height="1" rx="0.2" fill="#fef08a"/>
  <rect x="29.3" y="18" width="1.2" height="1" rx="0.2" fill="#fef08a"/>
  <rect x="29.3" y="20.5" width="1.2" height="1" rx="0.2" fill="#fef08a"/>
  <rect x="29.3" y="23" width="1.2" height="1" rx="0.2" fill="#fef08a"/>
  <rect x="29.3" y="25.5" width="1.2" height="1" rx="0.2" fill="#fef08a"/>
  <rect x="29.3" y="28" width="1.2" height="1" rx="0.2" fill="#fef08a"/>

  <!-- Pool deck (mid-ship) -->
  <rect x="20" y="14" width="8" height="5" rx="1.5" fill="#bfdbfe" stroke="#2563eb" stroke-width="0.5"/>
  <rect x="21" y="15" width="6" height="3" rx="1" fill="#93c5fd" stroke="#3b82f6" stroke-width="0.3"/>

  <!-- Funnel / smokestack -->
  <rect x="22" y="22" width="4" height="3" rx="0.5" fill="#1e40af" stroke="#1e3a5f" stroke-width="0.5"/>
  <line x1="22" y1="23.5" x2="26" y2="23.5" stroke="#f8fafc" stroke-width="0.6"/>

  <!-- Bridge (forward superstructure) -->
  <rect x="20" y="8" width="8" height="4" rx="1" fill="#1e3a5f" stroke="#1e40af" stroke-width="0.6"/>
  <!-- Bridge windows — lit -->
  <rect x="21" y="9" width="1.5" height="1" rx="0.2" fill="#fef08a" opacity="0.9"/>
  <rect x="23.25" y="9" width="1.5" height="1" rx="0.2" fill="#fef08a" opacity="0.9"/>
  <rect x="25.5" y="9" width="1.5" height="1" rx="0.2" fill="#fef08a" opacity="0.9"/>

  <!-- Stern deck -->
  <rect x="20" y="30" width="8" height="6" rx="1" fill="#e2e8f0" stroke="#94a3b8" stroke-width="0.4"/>
  <!-- Helipad circle -->
  <circle cx="24" cy="33" r="2.5" fill="none" stroke="#2563eb" stroke-width="0.5"/>
  <text x="24" y="34" text-anchor="middle" font-size="3" fill="#2563eb" font-family="sans-serif">H</text>

  <!-- Bow marking -->
  <line x1="22" y1="6" x2="26" y2="6" stroke="#2563eb" stroke-width="0.8" stroke-linecap="round"/>
</svg>
