<svg xmlns="http://www.w3.org/2000/svg" width="32" height="32" viewBox="0 0 48 48">
  <!-- Cargo/container ship, top-down, bow up. Gray scheme -->
  <!-- Hull -->
  <path d="M24 3 C24 3 19 5 17 9 L15 38 C15 42 19 45 24 45 C29 45 33 42 33 38 L31 9 C29 5 24 3 24 3 Z" fill="#d1d5db" stroke="#6b7280" stroke-width="1"/>

  <!-- Deck area -->
  <rect x="17" y="12" width="14" height="24" rx="1.5" fill="#e5e7eb" stroke="#9ca3af" stroke-width="0.6"/>

  <!-- Container grid (4 rows x 2 cols) -->
  <rect x="18" y="13" width="5" height="4.5" rx="0.5" fill="#f97316" stroke="#9a3412" stroke-width="0.4"/>
  <rect x="25" y="13" width="5" height="4.5" rx="0.5" fill="#3b82f6" stroke="#1e40af" stroke-width="0.4"/>
  <rect x="18" y="18.5" width="5" height="4.5" rx="0.5" fill="#22c55e" stroke="#166534" stroke-width="0.4"/>
  <rect x="25" y="18.5" width="5" height="4.5" rx="0.5" fill="#ef4444" stroke="#991b1b" stroke-width="0.4"/>
  <rect x="18" y="24" width="5" height="4.5" rx="0.5" fill="#8b5cf6" stroke="#5b21b6" stroke-width="0.4"/>
  <rect x="25" y="24" width="5" height="4.5" rx="0.5" fill="#f97316" stroke="#9a3412" stroke-width="0.4"/>
  <rect x="18" y="29.5" width="5" height="4.5" rx="0.5" fill="#3b82f6" stroke="#1e40af" stroke-width="0.4"/>
  <rect x="25" y="29.5" width="5" height="4.5" rx="0.5" fill="#22c55e" stroke="#166534" stroke-width="0.4"/>

  <!-- Bridge (stern) -->
  <rect x="20" y="35" width="8" height="5" rx="1" fill="#374151" stroke="#1f2937" stroke-width="0.6"/>
  <!-- Bridge windows -->
  <rect x="21" y="36" width="1.5" height="1.2" rx="0.2" fill="#67e8f9" opacity="0.7"/>
  <rect x="23.25" y="36" width="1.5" height="1.2" rx="0.2" fill="#67e8f9" opacity="0.7"/>
  <rect x="25.5" y="36" width="1.5" height="1.2" rx="0.2" fill="#67e8f9" opacity="0.7"/>

  <!-- Cranes (two gantry cranes mid-ship) -->
  <line x1="21" y1="13" x2="21" y2="10" stroke="#6b7280" stroke-width="0.8"/>
  <line x1="19" y1="10" x2="23" y2="10" stroke="#6b7280" stroke-width="0.8"/>
  <line x1="27" y1="13" x2="27" y2="10" stroke="#6b7280" stroke-width="0.8"/>
  <line x1="25" y1="10" x2="29" y2="10" stroke="#6b7280" stroke-width="0.8"/>

  <!-- Bow marking -->
  <line x1="22" y1="7" x2="26" y2="7" stroke="#9ca3af" stroke-width="0.8" stroke-linecap="round"/>
</svg>
