<svg xmlns="http://www.w3.org/2000/svg" width="32" height="32" viewBox="0 0 48 48">
  <!-- Fishing vessel, top-down, bow up. Lime scheme -->
  <!-- Hull (smaller, narrower) -->
  <path d="M24 5 C24 5 20 7 19 10 L17 38 C17 41 20 44 24 44 C28 44 31 41 31 38 L29 10 C28 7 24 5 24 5 Z" fill="#84cc16" stroke="#4d7c0f" stroke-width="1"/>

  <!-- Deck -->
  <rect x="19" y="12" width="10" height="24" rx="1.5" fill="#a3e635" stroke="#65a30d" stroke-width="0.5"/>

  <!-- Wheelhouse (small, forward) -->
  <rect x="21" y="12" width="6" height="5" rx="1" fill="#365314" stroke="#1a2e05" stroke-width="0.6"/>
  <rect x="22" y="13" width="1.2" height="1" rx="0.2" fill="#67e8f9" opacity="0.7"/>
  <rect x="24.4" y="13" width="1.2" height="1" rx="0.2" fill="#67e8f9" opacity="0.7"/>

  <!-- Crane/boom (fishing crane, angled) -->
  <line x1="24" y1="18" x2="24" y2="14" stroke="#4d7c0f" stroke-width="1.2"/>
  <line x1="24" y1="14" x2="32" y2="10" stroke="#4d7c0f" stroke-width="1"/>
  <line x1="32" y1="10" x2="32" y2="14" stroke="#65a30d" stroke-width="0.5" stroke-dasharray="1 1"/>

  <!-- Fishing nets (stern area) -->
  <path d="M20 28 Q24 32 28 28" fill="none" stroke="#4d7c0f" stroke-width="0.6" stroke-dasharray="1.5 1"/>
  <path d="M20 31 Q24 35 28 31" fill="none" stroke="#4d7c0f" stroke-width="0.6" stroke-dasharray="1.5 1"/>
  <path d="M20 34 Q24 38 28 34" fill="none" stroke="#4d7c0f" stroke-width="0.6" stroke-dasharray="1.5 1"/>

  <!-- Net drums (two circles at stern) -->
  <circle cx="22" cy="25" r="1.8" fill="#65a30d" stroke="#4d7c0f" stroke-width="0.5"/>
  <circle cx="26" cy="25" r="1.8" fill="#65a30d" stroke="#4d7c0f" stroke-width="0.5"/>
  <!-- Drum lines -->
  <line x1="20.2" y1="25" x2="23.8" y2="25" stroke="#4d7c0f" stroke-width="0.3"/>
  <line x1="24.2" y1="25" x2="27.8" y2="25" stroke="#4d7c0f" stroke-width="0.3"/>

  <!-- Mast -->
  <line x1="24" y1="18" x2="24" y2="22" stroke="#4d7c0f" stroke-width="0.8"/>
  <circle cx="24" cy="18" r="0.5" fill="#a3e635"/>
</svg>
